<mxfile host="app.diagrams.net" modified="2023-11-04T15:31:35.457Z" agent="Mozilla/5.0 (Windows NT 10.0; Win64; x64) AppleWebKit/537.36 (KHTML, like Gecko) Chrome/118.0.0.0 Safari/537.36" etag="Tz1foKnpx-0E2wyH_Ps6" version="22.0.8" type="device">
  <diagram name="PÃ¡gina-1" id="eKfsSIru9eyF497d-N70">
    <mxGraphModel dx="1120" dy="470" grid="1" gridSize="10" guides="1" tooltips="1" connect="1" arrows="1" fold="1" page="1" pageScale="1" pageWidth="827" pageHeight="1169" math="0" shadow="0">
      <root>
        <mxCell id="0" />
        <mxCell id="1" parent="0" />
        <mxCell id="nrPbz8pK0W8pIWtXC5DT-1" value="MEDIDOR DE GLUCEMIA" style="rounded=1;whiteSpace=wrap;html=1;fillColor=#FF9933;" parent="1" vertex="1">
          <mxGeometry x="350" y="10" width="120" height="60" as="geometry" />
        </mxCell>
        <mxCell id="nrPbz8pK0W8pIWtXC5DT-3" value="MEDIDOR" style="rounded=1;whiteSpace=wrap;html=1;fillColor=#99CCFF;" parent="1" vertex="1">
          <mxGeometry x="61" y="120" width="120" height="60" as="geometry" />
        </mxCell>
        <mxCell id="nrPbz8pK0W8pIWtXC5DT-4" value="TUBO DE TIRAS REACTIVAS" style="rounded=1;whiteSpace=wrap;html=1;fillColor=#99CCFF;" parent="1" vertex="1">
          <mxGeometry x="320" y="120" width="120" height="60" as="geometry" />
        </mxCell>
        <mxCell id="nrPbz8pK0W8pIWtXC5DT-5" value="FRASCO DE SOLUCION" style="rounded=1;whiteSpace=wrap;html=1;fillColor=#99CCFF;" parent="1" vertex="1">
          <mxGeometry x="448" y="120" width="120" height="60" as="geometry" />
        </mxCell>
        <mxCell id="nrPbz8pK0W8pIWtXC5DT-6" value="CABLE USB" style="rounded=1;whiteSpace=wrap;html=1;fillColor=#99CCFF;" parent="1" vertex="1">
          <mxGeometry x="574" y="120" width="120" height="60" as="geometry" />
        </mxCell>
        <mxCell id="nrPbz8pK0W8pIWtXC5DT-7" value="DISPOSITIVO DE PUNCION" style="rounded=1;whiteSpace=wrap;html=1;fillColor=#99CCFF;" parent="1" vertex="1">
          <mxGeometry x="700" y="120" width="120" height="60" as="geometry" />
        </mxCell>
        <mxCell id="nrPbz8pK0W8pIWtXC5DT-8" value="TIRA REACTIVA" style="rounded=1;whiteSpace=wrap;html=1;fillColor=#97D077;" parent="1" vertex="1">
          <mxGeometry x="320" y="219" width="120" height="60" as="geometry" />
        </mxCell>
        <mxCell id="nrPbz8pK0W8pIWtXC5DT-9" value="" style="endArrow=none;html=1;rounded=0;" parent="1" edge="1">
          <mxGeometry width="50" height="50" relative="1" as="geometry">
            <mxPoint x="120" y="90" as="sourcePoint" />
            <mxPoint x="760" y="90" as="targetPoint" />
          </mxGeometry>
        </mxCell>
        <mxCell id="nrPbz8pK0W8pIWtXC5DT-10" value="" style="endArrow=none;html=1;rounded=0;exitX=0.5;exitY=0;exitDx=0;exitDy=0;" parent="1" source="nrPbz8pK0W8pIWtXC5DT-3" edge="1">
          <mxGeometry width="50" height="50" relative="1" as="geometry">
            <mxPoint x="80" y="140" as="sourcePoint" />
            <mxPoint x="121" y="90" as="targetPoint" />
          </mxGeometry>
        </mxCell>
        <mxCell id="nrPbz8pK0W8pIWtXC5DT-11" value="" style="endArrow=none;html=1;rounded=0;exitX=0.5;exitY=0;exitDx=0;exitDy=0;" parent="1" source="nrPbz8pK0W8pIWtXC5DT-4" edge="1">
          <mxGeometry width="50" height="50" relative="1" as="geometry">
            <mxPoint x="290" y="140" as="sourcePoint" />
            <mxPoint x="380" y="90" as="targetPoint" />
          </mxGeometry>
        </mxCell>
        <mxCell id="nrPbz8pK0W8pIWtXC5DT-12" value="" style="endArrow=none;html=1;rounded=0;exitX=0.5;exitY=0;exitDx=0;exitDy=0;" parent="1" source="nrPbz8pK0W8pIWtXC5DT-5" edge="1">
          <mxGeometry width="50" height="50" relative="1" as="geometry">
            <mxPoint x="410" y="140" as="sourcePoint" />
            <mxPoint x="508" y="90" as="targetPoint" />
          </mxGeometry>
        </mxCell>
        <mxCell id="nrPbz8pK0W8pIWtXC5DT-13" value="" style="endArrow=none;html=1;rounded=0;exitX=0.442;exitY=0;exitDx=0;exitDy=0;exitPerimeter=0;" parent="1" edge="1">
          <mxGeometry width="50" height="50" relative="1" as="geometry">
            <mxPoint x="618.04" y="120" as="sourcePoint" />
            <mxPoint x="618" y="90" as="targetPoint" />
          </mxGeometry>
        </mxCell>
        <mxCell id="nrPbz8pK0W8pIWtXC5DT-14" value="" style="endArrow=none;html=1;rounded=0;exitX=0.5;exitY=0;exitDx=0;exitDy=0;" parent="1" source="nrPbz8pK0W8pIWtXC5DT-7" edge="1">
          <mxGeometry width="50" height="50" relative="1" as="geometry">
            <mxPoint x="710" y="140" as="sourcePoint" />
            <mxPoint x="760" y="90" as="targetPoint" />
          </mxGeometry>
        </mxCell>
        <mxCell id="nrPbz8pK0W8pIWtXC5DT-17" value="" style="endArrow=none;html=1;rounded=0;entryX=0.5;entryY=1;entryDx=0;entryDy=0;exitX=0.5;exitY=0;exitDx=0;exitDy=0;" parent="1" source="nrPbz8pK0W8pIWtXC5DT-8" target="nrPbz8pK0W8pIWtXC5DT-4" edge="1">
          <mxGeometry width="50" height="50" relative="1" as="geometry">
            <mxPoint x="400" y="250" as="sourcePoint" />
            <mxPoint x="450" y="200" as="targetPoint" />
          </mxGeometry>
        </mxCell>
        <mxCell id="nrPbz8pK0W8pIWtXC5DT-18" value="PANTALLA" style="rounded=1;whiteSpace=wrap;html=1;fillColor=#97D077;" parent="1" vertex="1">
          <mxGeometry x="3" y="219" width="120" height="60" as="geometry" />
        </mxCell>
        <mxCell id="nrPbz8pK0W8pIWtXC5DT-19" value="" style="endArrow=none;html=1;rounded=0;exitX=0.5;exitY=0;exitDx=0;exitDy=0;" parent="1" edge="1">
          <mxGeometry width="50" height="50" relative="1" as="geometry">
            <mxPoint x="61" y="219" as="sourcePoint" />
            <mxPoint x="61" y="200" as="targetPoint" />
          </mxGeometry>
        </mxCell>
        <mxCell id="nrPbz8pK0W8pIWtXC5DT-20" value="TECLAS" style="rounded=1;whiteSpace=wrap;html=1;fillColor=#97D077;" parent="1" vertex="1">
          <mxGeometry x="170" y="219" width="120" height="60" as="geometry" />
        </mxCell>
        <mxCell id="nrPbz8pK0W8pIWtXC5DT-21" value="" style="endArrow=none;html=1;rounded=0;" parent="1" edge="1">
          <mxGeometry width="50" height="50" relative="1" as="geometry">
            <mxPoint x="60" y="200" as="sourcePoint" />
            <mxPoint x="230" y="200" as="targetPoint" />
          </mxGeometry>
        </mxCell>
        <mxCell id="nrPbz8pK0W8pIWtXC5DT-22" value="" style="endArrow=none;html=1;rounded=0;exitX=0.5;exitY=0;exitDx=0;exitDy=0;" parent="1" source="nrPbz8pK0W8pIWtXC5DT-20" edge="1">
          <mxGeometry width="50" height="50" relative="1" as="geometry">
            <mxPoint x="275" y="250" as="sourcePoint" />
            <mxPoint x="230" y="200" as="targetPoint" />
          </mxGeometry>
        </mxCell>
        <mxCell id="nrPbz8pK0W8pIWtXC5DT-23" value="" style="endArrow=none;html=1;rounded=0;entryX=0.5;entryY=1;entryDx=0;entryDy=0;" parent="1" target="nrPbz8pK0W8pIWtXC5DT-3" edge="1">
          <mxGeometry width="50" height="50" relative="1" as="geometry">
            <mxPoint x="121" y="200" as="sourcePoint" />
            <mxPoint x="420" y="200" as="targetPoint" />
          </mxGeometry>
        </mxCell>
        <mxCell id="nrPbz8pK0W8pIWtXC5DT-24" value="" style="endArrow=none;html=1;rounded=0;entryX=0.5;entryY=1;entryDx=0;entryDy=0;" parent="1" target="nrPbz8pK0W8pIWtXC5DT-1" edge="1">
          <mxGeometry width="50" height="50" relative="1" as="geometry">
            <mxPoint x="410" y="90" as="sourcePoint" />
            <mxPoint x="300" y="20" as="targetPoint" />
          </mxGeometry>
        </mxCell>
        <mxCell id="nrPbz8pK0W8pIWtXC5DT-25" value="SOLUCION CONTROL" style="rounded=1;whiteSpace=wrap;html=1;fillColor=#97D077;" parent="1" vertex="1">
          <mxGeometry x="448" y="219" width="120" height="60" as="geometry" />
        </mxCell>
        <mxCell id="nrPbz8pK0W8pIWtXC5DT-26" value="" style="endArrow=none;html=1;rounded=0;entryX=0.5;entryY=1;entryDx=0;entryDy=0;exitX=0.5;exitY=0;exitDx=0;exitDy=0;" parent="1" source="nrPbz8pK0W8pIWtXC5DT-25" target="nrPbz8pK0W8pIWtXC5DT-5" edge="1">
          <mxGeometry width="50" height="50" relative="1" as="geometry">
            <mxPoint x="634" y="250" as="sourcePoint" />
            <mxPoint x="684" y="200" as="targetPoint" />
          </mxGeometry>
        </mxCell>
        <mxCell id="nrPbz8pK0W8pIWtXC5DT-27" value="AGUJA" style="rounded=1;whiteSpace=wrap;html=1;fillColor=#97D077;" parent="1" vertex="1">
          <mxGeometry x="700" y="219" width="120" height="60" as="geometry" />
        </mxCell>
        <mxCell id="nrPbz8pK0W8pIWtXC5DT-28" value="" style="endArrow=none;html=1;rounded=0;entryX=0.5;entryY=1;entryDx=0;entryDy=0;" parent="1" source="nrPbz8pK0W8pIWtXC5DT-27" target="nrPbz8pK0W8pIWtXC5DT-7" edge="1">
          <mxGeometry width="50" height="50" relative="1" as="geometry">
            <mxPoint x="710" y="240" as="sourcePoint" />
            <mxPoint x="760" y="190" as="targetPoint" />
          </mxGeometry>
        </mxCell>
        <mxCell id="nrPbz8pK0W8pIWtXC5DT-30" value="SOFTWARE" style="rounded=1;whiteSpace=wrap;html=1;fillColor=#97D077;" parent="1" vertex="1">
          <mxGeometry x="91" y="300" width="120" height="60" as="geometry" />
        </mxCell>
        <mxCell id="nrPbz8pK0W8pIWtXC5DT-31" value="" style="endArrow=none;html=1;rounded=0;exitX=0.408;exitY=0;exitDx=0;exitDy=0;exitPerimeter=0;" parent="1" source="nrPbz8pK0W8pIWtXC5DT-30" edge="1">
          <mxGeometry width="50" height="50" relative="1" as="geometry">
            <mxPoint x="140" y="280" as="sourcePoint" />
            <mxPoint x="140" y="200" as="targetPoint" />
          </mxGeometry>
        </mxCell>
        <mxCell id="o4ciku9T9sx7EJDCldT3-1" value="BATERIAS" style="rounded=1;whiteSpace=wrap;html=1;fillColor=#99CCFF;" vertex="1" parent="1">
          <mxGeometry x="191" y="120" width="120" height="60" as="geometry" />
        </mxCell>
        <mxCell id="o4ciku9T9sx7EJDCldT3-2" value="" style="endArrow=none;html=1;rounded=0;exitX=0.5;exitY=0;exitDx=0;exitDy=0;" edge="1" parent="1" source="o4ciku9T9sx7EJDCldT3-1">
          <mxGeometry width="50" height="50" relative="1" as="geometry">
            <mxPoint x="200" y="140" as="sourcePoint" />
            <mxPoint x="250" y="90" as="targetPoint" />
          </mxGeometry>
        </mxCell>
      </root>
    </mxGraphModel>
  </diagram>
</mxfile>
